<svg xmlns="http://www.w3.org/2000/svg" viewBox="0 0 64 64" role="img" aria-label="Climatizaciµn Sur">
  <!-- Anillo -->
  <circle cx="32" cy="32" r="28" fill="none" stroke="#0b1a2e" stroke-width="4"/>
  <!-- Sol -->
  <circle cx="32" cy="16" r="5" fill="#f4a261"/>
  <g stroke="#f4a261" stroke-width="2" stroke-linecap="round">
    <line x1="32" y1="7" x2="32" y2="9"/>
    <line x1="40" y1="10" x2="38.5" y2="11.5"/>
    <line x1="43" y1="18" x2="41" y2="18"/>
    <line x1="24" y1="10" x2="25.5" y2="11.5"/>
    <line x1="21" y1="18" x2="23" y2="18"/>
  </g>
  <!-- Montaþas -->
  <path d="M14 38 L24 22 L30 30 L36 20 L50 38 Z" fill="#0b1a2e"/>
  <path d="M30 30 L36 20 L40 28 Z" fill="#48cae4" opacity="0.55"/>
  <!-- Onda -->
  <path d="M8 40 Q20 36 32 40 T56 40" fill="none" stroke="#0b1a2e" stroke-width="3" stroke-linecap="round"/>
  <!-- Copo -->
  <g stroke="#48cae4" stroke-width="2" stroke-linecap="round" fill="none">
    <line x1="32" y1="46" x2="32" y2="56"/>
    <line x1="27" y1="51" x2="37" y2="51"/>
    <line x1="28.5" y1="47.5" x2="35.5" y2="54.5"/>
    <line x1="35.5" y1="47.5" x2="28.5" y2="54.5"/>
  </g>
</svg>
